<svg width="24" height="24" viewBox="0 0 24 24" fill="none" xmlns="http://www.w3.org/2000/svg">
<path d="M18.364 5.63606C19.1997 6.47179 19.8627 7.46395 20.315 8.55588C20.7673 9.64782 21.0001 10.8182 21.0001 12.0001C21.0001 13.182 20.7673 14.3523 20.315 15.4442C19.8627 16.5362 19.1997 17.5283 18.364 18.3641C17.5283 19.1998 16.5361 19.8627 15.4442 20.315C14.3522 20.7673 13.1819 21.0001 12 21.0001C10.8181 21.0001 9.64777 20.7673 8.55583 20.315C7.46389 19.8627 6.47173 19.1998 5.636 18.3641C3.94816 16.6762 2.99994 14.387 2.99994 12.0001C2.99994 9.61309 3.94816 7.32389 5.636 5.63606C7.32384 3.94822 9.61304 3 12 3C14.387 3 16.6762 3.94822 18.364 5.63606" stroke="#ADADAD" strokeWidth="1.5" strokeLinecap="round" strokeLinejoin="round"/>
<path d="M17.307 19.257C16.923 17.417 14.705 16 12 16C9.295 16 7.077 17.417 6.693 19.257" stroke="#ADADAD" strokeWidth="1.5" strokeLinecap="round" strokeLinejoin="round"/>
<path d="M14.121 7.87912C14.4123 8.15466 14.6454 8.48582 14.8066 8.853C14.9677 9.22018 15.0536 9.61594 15.0592 10.0169C15.0648 10.4178 14.9899 10.8158 14.839 11.1874C14.6882 11.5589 14.4644 11.8964 14.1808 12.1799C13.8973 12.4635 13.5598 12.6873 13.1882 12.8382C12.8167 12.989 12.4187 13.0639 12.0178 13.0583C11.6168 13.0527 11.2211 12.9668 10.8539 12.8057C10.4867 12.6446 10.1555 12.4114 9.88 12.1201C9.35008 11.5514 9.06159 10.7992 9.0753 10.022C9.08901 9.24482 9.40386 8.50328 9.95351 7.95363C10.5032 7.40398 11.2447 7.08913 12.0219 7.07542C12.7991 7.06171 13.5513 7.3502 14.12 7.88012" stroke="#ADADAD" strokeWidth="1.5" strokeLinecap="round" strokeLinejoin="round"/>
</svg>
